<svg id="그룹_285" data-name="그룹 285" xmlns="http://www.w3.org/2000/svg" xmlns:xlink="http://www.w3.org/1999/xlink" width="58.615" height="22.83" viewBox="0 0 58.615 22.83">
  <defs>
    <clipPath id="clip-path">
      <rect id="사각형_338" data-name="사각형 338" width="58.615" height="22.83" fill="#999"/>
    </clipPath>
  </defs>
  <g id="그룹_282" data-name="그룹 282" transform="translate(0 0)" clip-path="url(#clip-path)">
    <path id="패스_391" data-name="패스 391" d="M91.5.065a.25.25,0,0,0-.11-.059c-.173-.037-.338.088-.6.286L90.6.447c-.7.374-1.236,2.12-1.358,2.84-.018.015-.033.015-.069.044a3.048,3.048,0,0,0-2.036-1.541c.323,1.24,1.416,4.99,2.872,4.667.738-.161,2.282-3.272,2.3-4.99V1.4C92.293.5,91.875.175,91.5.065" transform="translate(-54.31 0)" fill="#999"/>
    <path id="패스_392" data-name="패스 392" d="M116.611,50.852a12.027,12.027,0,0,0-4.223.558,1.567,1.567,0,0,0-.664.477c.026.374-.2.976.154,1.115.018,0,.018.059.033.088.1.1.209.117.312.25.07.095.125-.008.2.029.033.036.048.095.084.1.176.081.334.052.51.125.084.081.18.066.264.081.055-.022.121.1.139.132a2.189,2.189,0,0,0,.976.007c1.013-.015.822-.11,1.831-.132.855-.007,1.684.118,2.535.11.458-.022.965,0,1.424-.037.814-.044,1.633.081,2.451.088.407-.007.884.154,1.295.183a6.033,6.033,0,0,1,1.31-.022,1.226,1.226,0,0,1,.429.052,1.014,1.014,0,0,0,.4.147,2.638,2.638,0,0,0,1.115-.264,2.376,2.376,0,0,0,.664-.235.6.6,0,0,0,.242-.382,1.586,1.586,0,0,0,.077-.991c-.018,0-.073.03-.092,0-.037-.058-.029-.2-.081-.205a3.384,3.384,0,0,0-.492-.117c-.217-.052-.437-.147-.649-.191a55.581,55.581,0,0,0-10.247-.969" transform="translate(-69.607 -31.685)" fill="#999"/>
    <path id="패스_393" data-name="패스 393" d="M29.339,51.407c.183.044.393.037.492.162.1.1-.1.249-.084.374,0,.3.11.58.106.873a.191.191,0,0,1-.073.154.856.856,0,0,1-.224.205c-.253.162-.594.1-.88.183a6.485,6.485,0,0,1-1.178.2,15.551,15.551,0,0,1-2.1-.1,2,2,0,0,0-.792.11,3.426,3.426,0,0,1-.984.058c-1.713-.058-3.386-.1-5.088-.088-.3.015-.624.052-.921.066-1.368.073-2.737.052-4.1.088-.477.008-.954.022-1.438.015-.26,0-.532.008-.77.015-1.009.052-2.055.1-3.067.052-.389.015-.8.015-1.193.015a31.2,31.2,0,0,1-3.416.183,5.775,5.775,0,0,1-2.4-.631A3.236,3.236,0,0,1,0,52.251a1.392,1.392,0,0,1,.818-.433c.756-.205,1.468-.338,2.238-.469.645-.11,1.24-.162,1.867-.22a153.108,153.108,0,0,1,20.938-.213,22.727,22.727,0,0,1,3.478.492" transform="translate(0 -31.573)" fill="#999"/>
    <path id="패스_394" data-name="패스 394" d="M118.812,27.827v-.279c-.158-.242-.11-.515-.308-.75a2.636,2.636,0,0,0-.158-.66c0-.1-.051-.235.048-.323-.1-.191-.048-.426-.1-.609.154-.147.051-.382-.055-.521a.161.161,0,0,0,.055-.14,1.414,1.414,0,0,1-.154-.425c-.055-.14-.253-.1-.253-.228a2.661,2.661,0,0,0-.866-.052c-.059-.044-.1-.044-.1-.147h-.261a.839.839,0,0,0-.565-.323v.1c-.044.1-.117.1-.2.1-.073.1-.191.191-.154.374,0,.044-.037.044-.073.044a2.04,2.04,0,0,1-.04.47,8.882,8.882,0,0,0-.393,1.314.282.282,0,0,0-.114.235c-.2.235-.389.47-.584.7a.409.409,0,0,0-.352.242H114.1a.425.425,0,0,1-.349.183c0,.1-.11,0-.11.1h-.474c-.15-.149-.293-.185-.367-.376v-.1a1.163,1.163,0,0,1-.147-.513c-.11-.235-.077-.514-.183-.749.04-.139-.037-.279.04-.382,0-.088-.11-.183-.077-.278-.033,0-.073,0-.073-.044a.75.75,0,0,0-.073-.419c-.037,0-.07,0-.07-.051v-.1h-.073c-.073-.139-.022-.228-.077-.338a1.147,1.147,0,0,0-.451-.154.711.711,0,0,0-.477.183l.037.058a2.028,2.028,0,0,0-.349.529c-.051.051-.147.1-.147.191.051,0,.051.051.051.1-.15.088-.1.235-.2.322l.048.052c-.048.139-.143.279-.194.418a1.163,1.163,0,0,1-.1.565c0,.051,0,.1.048.1a1.277,1.277,0,0,0-.048.609.161.161,0,0,0-.051.139c.1.185-.077.354-.026.552a.864.864,0,0,1,.1.389,1.145,1.145,0,0,0,.1.1c.051.294.2.536.253.837.047,0,.1,0,.1.052l-.051.052c.154.088.106.19.106.345a.224.224,0,0,0,.151.036c.1,0,0,.154.1.154a7.279,7.279,0,0,1,1.02.543c.15.051.3-.052.411.051l.047-.051c.052,0,.1,0,.1.051.1-.1.253,0,.356.051a1.772,1.772,0,0,1,.469-.1c.081-.2.29-.235.367-.411.33-.176.477-.579.749-.836v-.088c.081-.037.121-.162.2-.206,0-.132.114-.213.158-.338l.037.044c.037-.22.231-.389.275-.6.037-.037.037-.081.11-.081a2.827,2.827,0,0,1,.2.213c-.044.037.077.081.037.125.154.125.194.381.312.543a1.406,1.406,0,0,0,.113.389c0,.037,0,.081-.037.081a1.839,1.839,0,0,1,.194.807c.118.044.1.11.143.205a.376.376,0,0,0,.414-.191c.048,0,.048.052.048.1a.275.275,0,0,0,.209-.1l.052.052c.1-.1.451,0,.554-.052a.432.432,0,0,1,.261-.089c.1,0,0-.146.1-.146.051,0,.1-.1.205-.044.1-.14.257-.235.356-.374,0,.044.055.044.106.044V29c.048-.051.1-.1.158-.147a5.618,5.618,0,0,0,.1-.888c-.1,0,0-.139-.1-.139" transform="translate(-68.693 -14.567)" fill="#999"/>
    <path id="패스_395" data-name="패스 395" d="M91.985,49.14l.077-.008c-.044-.007-.077-.044-.077.008" transform="translate(-57.333 -30.612)" fill="#999"/>
    <path id="패스_396" data-name="패스 396" d="M79.361,26.3a.722.722,0,0,0-.143-.11c.052-.147-.033-.337.081-.484-.242-.432-.169-1.042-.536-1.394-.011-.066-.015-.139-.022-.2A15.988,15.988,0,0,0,77.8,22.7c-.125.081-.147-.118-.224-.176a.223.223,0,0,1-.194-.044l-.059.073-.073-.051c0,.066-.063.073-.132.081a.323.323,0,0,0-.268-.1c-.07.008-.077-.059-.081-.125-.194.029-.279-.1-.469-.073-.07.008-.073-.058-.081-.125-.264.037-.462.066-.723.1.008.058.088.191-.037.271-.147-.117-.272-.037-.4-.022-.04.213-.231.3-.15.492,0,.059-.059.073-.125.081.1.257-.015.529.143.778.11.389.2,1.38.315,1.277a4.524,4.524,0,0,0,.217.851c0,.066.158.125.1.2a.775.775,0,0,1,.007.1c-.007,0,0,.008-.007.015-.154.029-.224.208-.327.229-.015-.044-.063-.029-.118-.022-.044.059-.15.081-.176.191-.158.037-.2.191-.293.3l-.059-.044c-.191.176-.466.162-.591.367-.3.147-.565.2-.88.316-.051,0-.107.007-.11-.044-.051.1-.268.022-.315.117a5.522,5.522,0,0,0-.914.066c0-.1-.158.008-.165-.088-.261.11-.536-.044-.8-.044-.055-.037-.162-.037-.22-.14A.622.622,0,0,1,70,27.356c-.157,0-.268-.14-.425-.2v-.088a1.254,1.254,0,0,1-.11-.1c0-.139.161-.139.268-.191.11-.147.4-.11.506-.249,0-.052.143-.147.143-.193.051-.1.092-.191.143-.191.165-.088.055-.2.275-.249,0-.052.169-.169.11-.213.22-.139.212-.228.267-.513a.9.9,0,0,0,.264-.492c.055-.044-.011-.25.095-.3.055-.33-.084-.513-.084-.844a.842.842,0,0,1-.107-.1c0-.139-.107-.242-.055-.382-.158-.139-.125-.191-.283-.33l-.1-.1h-.106c-.055-.1-.22-.139-.22-.235a4.565,4.565,0,0,1-.638-.286l-.055.044-.051-.044-.11.088c0-.139-.157,0-.213-.088-.11,0-.216-.051-.327.044-.319-.1-.668.073-.99-.066,0,.088-.213-.051-.213.088-.11.052-.264.052-.319.1h-.158a.858.858,0,0,1-.62.308c-.106,0,0,.147-.106.147h-.11a5.521,5.521,0,0,1-.8.712c0,.052-.106.1-.051.2,0,.044-.055.044-.11.044a.252.252,0,0,1-.107.191c0,.044,0,.1.052.1,0,.044-.084.169-.136.169-.052.191-.052.374-.213.477,0,.382-.114.565-.136.983a5.5,5.5,0,0,1,.055.756c.165.1-.041.1.07.244.055,0,.025.1.025.139.055.1.235.169.176.272,0,.051.092.1.151.1.055.1-.084.2.033.257,0,.051.176.015.117.11l.1.22a1.014,1.014,0,0,1,.246.213.681.681,0,0,0,.217.235,1.275,1.275,0,0,1,.205.1l.063.132.157.147c.169.044.2-.051.33.125.059,0,.11,0,.11.052l.059-.052c.055.1.161.147.223.2a.6.6,0,0,1,.422.162c.062,0,.066.117.066.058.172.051.29.169.4.073.059,0,.114,0,.114.044l.051-.044c.118-.059.14.073.254.029.055,0,.055.044.055.1h.114c.113.1.591-.03.7.073a8.126,8.126,0,0,0,1.669-.066c0-.1.157.008.161-.088l.055.051c.213.059.433-.191.649-.088l.11-.088c.11-.044.264.154.374.022,0,.044.055.051.106.051a.868.868,0,0,0,0-.1c.169-.088.367-.066.5-.2a2.034,2.034,0,0,0,.213.022.8.8,0,0,0,.113-.081c.279-.066.521-.286.84-.359.048-.051.151-.066.195-.161a1.277,1.277,0,0,1,.165-.015c.047-.051.1-.1.143-.154.169.03.308-.2.466-.22-.008-.044-.015-.1.04-.1l.062.037c.1-.059.1-.059.136-.169.015.008.026-.015.041-.015a.74.74,0,0,1,.092.389c.055-.008.121-.015.128.051a.791.791,0,0,0-.11.14c.063-.007.066.059.073.117-.063.007-.055.066-.052.132.063-.007.07.059.077.117a1.215,1.215,0,0,0-.107.147c0,.066.063.051.128.044.066.117-.157.213-.029.257-.029.33.088.675-.085.946-.128-.066.018.353.015.228,0,.125-.077.55-.2.616v.125c.058,0-.066.118-.07.059l.063.059c-.055.2.026.176-.154.308,0,.059,0,.132,0,.191-.128.074,0,.286-.066.345l-.062-.051c-.059,0-.044.051-.044.118.055-.008.077.029.077.088-.118.14.209.132.073.25l-.128.007c.015.008.029.015.044,0-.118-.007.026.279-.157.206-.008.132-.22.315-.3.44.125-.059.106-.044.114.015.055.059-.1.125-.088.125-.007.029-.125.081-.169.125-.228.433-.114.154-.268.389-.066-.007-.132.206-.128.139.059.008-.044.052-.04-.007-.07.059-.07.059-.136.118.052.132.169.2-.029.315-.066-.007-.055-.066-.051-.125-.128.052-.136.176-.2.242-.007.066-.007.066-.014.118a2.569,2.569,0,0,1-.371.389.7.7,0,0,1-.125-.008.258.258,0,0,0-.081.183c0,.066-.063.059-.125.059s-.11.073-.107.007c-.062-.007-.037.1-.169.162l.044.095c-.132.052-.1.073-.216.066-.011.125-.283.125-.294.249.052.132.169.132.228.257l.238.022c.048.132-.187.029-.081.162.066.007.165.022.158.081l-.063.059c.059.007-.062.073-.007.139.062,0,.2.132.253.2l.07-.059c.059.066.128.052.128.118.118,0,.323.088.455-.029.063,0,.231-.118.228-.051.114.066.066-.118.2-.176l.385-.176c.48-.543,1.178-.763,1.658-1.306.092-.022.1-.022.143-.066l0-.081c.007-.059.073-.059.128-.059a.361.361,0,0,1,.151-.242c-.063-.008.194-.133.136-.2a2,2,0,0,1,.283-.308c.059-.007.059-.066.059-.132.118-.066.118-.066.18-.2a.667.667,0,0,1,.121-.007l-.062-.059c-.066-.125.114-.073.114-.2s.283-.183.216-.316c.114-.191.268-.257.389-.455-.066-.249.143-.4.319-.528,0-.059,0-.125-.059-.125.055-.132.114-.323.176-.455l-.066-.059c.118-.066.059-.191.055-.257.121-.139.18-.257.3-.4a.217.217,0,0,0-.066-.183,1.559,1.559,0,0,0,.121-.139.817.817,0,0,1,.312-.5l-.07-.058c.128-.14,0-.272-.077-.4,0-.066,0-.132.066-.132l.07.059.059-.066-.063-.066c.125-.205.015-.484.195-.646a.249.249,0,0,0-.081-.191c.183-.154-.033-.323.077-.469,0-.066-.011-.133-.07-.125l.059-.081-.073-.059.059-.073c-.066.008-.077-.059-.081-.117l.114-.147c.037-.345-.194-.646-.1-.993M69.342,24.822a1.919,1.919,0,0,1-.862,1.365c-.052,0-.11,0-.11-.051,0-.1-.106-.249-.051-.353,0-.044-.055-.044-.11-.044.11-.11-.073-.205-.018-.359-.055,0-.055-.051-.055-.1.165-.1.029-.36.194-.462l-.052-.044a1.2,1.2,0,0,1,.242-.359v-.1a2.145,2.145,0,0,1,.775-.389c.047,0,.11,0,.11.051.161.206.051.4,0,.6-.11.052,0,.154-.11.206Z" transform="translate(-40.622 -13.765)" fill="#999"/>
    <path id="패스_397" data-name="패스 397" d="M38.233,8.071l.077-.015a1.377,1.377,0,0,1,0-.426c-.015-.058-.125-.022-.1-.058l-.026-.051c-.04-.03.015-.11.044-.147-.029-.147-.158.015-.217-.081l.11-.176c-.051-.1-.282-.161-.378-.22-.058.088-.051.051-.161.11l-.033-.081c-.114.052-.173-.014-.2.03.044.022-.033.022-.058.058s-.063.088-.11.059a.2.2,0,0,0-.165-.044.363.363,0,0,1-.066.081,2.386,2.386,0,0,1-1.05-.022,1.029,1.029,0,0,0-.15.037c.048.022-.04.081-.011.037.048.022-.136-.022-.162.022-.242-.008-.778.051-.675-.015-.121-.008-.363.058-.462.015-.029.147-.2-.1-.249,0,.073-.022-.1-.037-.051-.015l.007.066c-.147.044-.165-.1-.312-.044-.047-.022-.07-.044-.044-.088-.052-.022-.084-.051-.114,0l.029.059c-.077.029-.206-.125-.3-.051-.055-.022-.1-.044-.151-.059a1.413,1.413,0,0,1-.543.11L32.678,7.1c.052.008-.084.088-.066.037l-.11-.015a1.025,1.025,0,0,1-.576.059c.11.022-.213-.191-.195-.081-.272.11-.579-.051-.866-.051-.018-.11-.136.066-.228,0,.018-.044.033-.1-.015-.11-.077.044-.125.022-.194.066-.059,0-.11-.015-.092-.066-.058,0-.118-.008-.128.037-.052-.007-.11-.015-.092-.066-.073.044-.143.1-.212.147-.048,0-.037-.051-.026-.1-.231.029-.363-.183-.616-.1.011-.044-.037-.052-.1-.059-.209.139-.5-.008-.69.081-.029-.1-.154-.044-.264-.044-.069.044-.11-.081-.168-.081a3.512,3.512,0,0,0-.745-.11c.1-.11-.763-.11-1.1-.169-.212-.118-.466-.015-.689-.066-.008.051-.022.1-.077.1-.161-.052-.257.1-.444.154-.022.11-.143.162-.11.257-.081.11-.092.125-.151.125-.047.213-.084.2-.143.411.063,0,.121.007.1.059-.041.161.055.22.018.389.048,0,.114,0,.1.052a.241.241,0,0,0,.058.227c-.015.052-.029.1-.084.1l.04.059-.077.051a.134.134,0,0,1,.014.162c.051.058.224.066.136.169a11.164,11.164,0,0,0,1.159.712c.063,0,.114.008.176.008.275.286.822.2,1.181.381.143-.1.3-.037.433-.088a.92.92,0,0,0,.092.11c.316-.088.488.073.793.044.07-.044.07-.044.147-.088.055,0,.11.008.092.066l.077-.052.044.059.073-.044c-.015.051.04.059.1.066.147-.1.238.029.407-.11a.186.186,0,0,0,.151.081c.168-.14.228.007.436-.059l.037.059.069-.037-.029-.066c.011-.022.044-.007.066-.015a3.834,3.834,0,0,0,.246.866c.044.015.1.118.132.169-.011.051-.011.051-.018.1.063.118.132.242.191.359-.041-.015-.052.037-.063.088.051.169.047.345.1.513.069.059-.011.1.066.176.007.007-.048.1-.04.11a.264.264,0,0,0,.026.176c.026.191.018.044.139.169-.114.14.084.374-.037.514.066.066.07-.029.088.022l-.044.073c-.022.037.022.059.063.073.04.1-.033.161.022.257.04.015,0,.139.044.147.008.1.128.118.018.191-.04-.015-.022.169-.059.293a.752.752,0,0,1-.014.3c.04.008.066-.037.051,0l-.026.088c.037.008.033.081.018.125,0,.132-.081.2-.128.323-.044.264.1.477-.088.58.063.052-.011.125-.029.161-.069.03-.051.162-.1.191-.066.169-.1.161-.165.323-.113.059-.128.132-.238.2a.417.417,0,0,0-.033.081c-.018.037-.055.029-.092.022-.073.073-.323.185-.36.258l.026.059a1.638,1.638,0,0,0-.359.169c-.158.1-.279.1-.451.183-.147-.044-.272.066-.422.029-.059.022-.114.058-.169.081-.073-.015-.191.037-.246-.015-.073-.029-.055.11-.128.1a.133.133,0,0,0-.073-.015l-.018-.059c-.114.059-.205-.008-.319.044l-.018-.044c-.11.059-.206-.008-.279.066a.852.852,0,0,0-.47-.051c.018-.044-.022-.052-.066-.059l-.044.037c.011-.044-.323-.015-.359-.022l-.077-.022-.018-.037-.058.029c-.063-.058-.463-.095-.558-.2-.073.073-.147.037-.235.022a4.239,4.239,0,0,1-.843-.19l-.023-.052a.343.343,0,0,1-.388-.11.961.961,0,0,1-.147-.029c-.048-.1-.327-.083-.371-.192a1.067,1.067,0,0,1-.194-.169c-.092.059-.327-.22-.371-.242h-.154l-.062-.168-.205-.154c-.081-.161-.169-.037-.195-.168-.022-.11-.176-.14-.238-.14s-.183.132-.242.029a1.067,1.067,0,0,1-.231.257.339.339,0,0,1-.216.051c-.033.162-.048.176.092.558.066.015.131.376.2.391-.029-.141.187.3.253.36l.092.022c.044.015.025.058,0,.1l.2.139c.014.052.063.066.011.139a1.211,1.211,0,0,1,.374.155c.044.022.018.058-.008.095.041.015.085.037.1,0,.118,0,.037.11.052.162l.07-.015c.015.052.1.088.1.088.132.2.77.448.932.624l.063-.029c.044.1.33.125.33.257l.059-.037c.03.051.448.132.569.2.058-.037-.023-.1.04-.14.07.066.217.2.286.257a2.027,2.027,0,0,1,.309.051c.165.169.5.066.7.154a.137.137,0,0,0,.11.073l.066-.037.026.058c.125-.066.191-.007.275-.081l.026.051.055-.029a.5.5,0,0,1,.055.1c.176.037.334.125.521.022.026.052.066.059.11.073l.128-.059c.128.022.157.074.3.059l.029.051a.649.649,0,0,1,.5-.022c.037-.081.132.029.169-.051l.026.051c.147-.1.363-.051.514-.059l.026.059c.066-.037.044,0,.044,0,.125-.059.426-.066.517-.14a.59.59,0,0,0,.4.052c.052.008.147.037.194.044a.465.465,0,0,1,.529-.022,3.1,3.1,0,0,0,.66-.279,1.241,1.241,0,0,0,.15.037c.073-.022.121-.007.169-.081a2.1,2.1,0,0,0,.565-.286c.022.051.143-.052.169.007a.228.228,0,0,1,.047-.081c.1.029.169-.088.264-.059a.774.774,0,0,0,.044-.081c.147-.052.092-.088.235-.139.125-.081.3-.367.584-.5-.008-.088.176-.139.22-.22.018-.044.07-.029.118-.015l-.029-.059c.069-.029.051-.161.11-.1.022-.044.106-.147.066-.162.139-.11.136-.455.338-.5.018-.044.018-.044.037-.081.081-.117.044-.317.092-.347.022-.036,0-.066.04-.051.047-.169.088-.411.136-.631-.04-.007-.018-.051,0-.088.04.007.059-.037.073-.073-.037-.007-.018-.059,0-.1l.063-.029c-.085-.022.011-.132-.074-.154l.055-.037c-.07-.2.033-.4-.041-.594l.059-.029a.263.263,0,0,1,0-.352.14.14,0,0,1,0-.132c-.114-.073.022-.147-.051-.205.048-.132-.092-.257-.015-.374a2.541,2.541,0,0,0-.124-.242c.014-.044.026-.088.04-.132-.048-.008-.085-.015-.077-.059.07-.073,0-.132.015-.22-.077-.015-.037-.088-.062-.139a1.243,1.243,0,0,0-.224-.6c.055-.088-.062-.426-.055-.529l-.081-.044a.428.428,0,0,0-.158-.22.47.47,0,0,0,.008-.1c-.044,0-.084-.008-.081-.059l.008-.1-.044.051a.284.284,0,0,1-.11-.272c-.154-.227-.213-.381-.44-.7-.084.051,0-.169-.1-.118a1.289,1.289,0,0,0-.378-.506c0-.044,0-.044.008-.1h-.092c-.011,0,0-.022-.011-.029a.985.985,0,0,1,.319-.088c.07.1.231-.088.327-.044s.1-.081.158.015l.018.073a.626.626,0,0,0,.058-.088.312.312,0,0,0,.231-.044c.044.015.088.052.125.008A1.947,1.947,0,0,1,35,9.282c.018.066.128-.037.1.007a.3.3,0,0,1,.249.022c.026-.044.055-.088.107-.059L35.5,9.3a.37.37,0,0,0,.121-.066c.628-.059.972-.367,1.6-.367.107-.044.217-.1.327-.147s.205.088.227-.029c-.044-.029.125-.073.162-.11.154-.022.249-.286.308-.367-.048-.029,0-.073-.011-.139" transform="translate(-13.597 -3.993)" fill="#999"/>
  </g>
</svg>
