<svg xmlns="http://www.w3.org/2000/svg" width="34.36" height="42.75" viewBox="0 0 34.36 42.75">
  <g id="그룹_361" data-name="그룹 361" transform="translate(-351.542 -753.5)">
    <g id="그룹_360" data-name="그룹 360" transform="translate(352.042 753.75)">
      <g id="그룹_296" data-name="그룹 296" transform="translate(0)">
        <g id="그룹_295" data-name="그룹 295" transform="translate(0 24.08)">
          <path id="패스_419" data-name="패스 419" d="M349.475,272.9h0Z" transform="translate(-344.818 -257.068)" fill="none" stroke="#464c51" stroke-width="1"/>
          <path id="패스_420" data-name="패스 420" d="M346.506,284.232c-.029-.014-.058-.032-.088-.049a.647.647,0,0,0-.331-.12h-.018a.312.312,0,0,0-.212.085.294.294,0,0,0-.069.263.37.37,0,0,1,0,.04.358.358,0,0,0-.006.1v.018a.174.174,0,0,0,.064.132.238.238,0,0,0,.154.055h.407a.218.218,0,0,0,.207-.128l.007-.018A.26.26,0,0,0,346.506,284.232Z" transform="translate(-341.663 -266.84)" fill="#464c51" stroke="#464c51" stroke-width="1"/>
          <path id="패스_421" data-name="패스 421" d="M538.383,162.319a.242.242,0,0,1,.131.038c.055-.058.118-.13.166-.188a.344.344,0,0,1-.122-.19.315.315,0,0,1,.045-.23.874.874,0,0,1-.3-.2.341.341,0,0,1-.054-.048.183.183,0,0,1-.027-.037.265.265,0,0,0-.1-.118s-.009,0-.025.013l-.01.041a.577.577,0,0,1-.14.3.61.61,0,0,0-.135.5c0,.01,0,.021,0,.031a.554.554,0,0,0,.495.092A.252.252,0,0,1,538.383,162.319Z" transform="translate(-505.813 -159.395)" fill="#aecc62" stroke="#464c51" stroke-width="1"/>
          <path id="패스_422" data-name="패스 422" d="M536.6,159.465a.243.243,0,0,0-.127-.154.319.319,0,0,1-.044-.025,1.038,1.038,0,0,1,.1-.113l.015-.018a.221.221,0,0,0,.019-.255.257.257,0,0,0-.221-.111l-.033,0c-.089.009-.151-.02-.26-.126l-.017-.015a.534.534,0,0,0-.47-.3.578.578,0,0,0-.376.151.182.182,0,0,0-.057.084,1.231,1.231,0,0,0-.032.122.425.425,0,0,1-.043.13.922.922,0,0,0-.241.75c0,.039,0,.078,0,.117a.177.177,0,0,0,.082.149,1.236,1.236,0,0,0,.7.251.975.975,0,0,0,.145-.011.357.357,0,0,0,.227.077h.007c.111,0,.182-.052.379-.271C536.622,159.6,536.623,159.541,536.6,159.465Zm-1.352.148c0-.01,0-.021,0-.031a.61.61,0,0,1,.135-.5.578.578,0,0,0,.14-.3l.01-.041c.016-.01.025-.012.025-.013a.265.265,0,0,1,.1.118.182.182,0,0,0,.027.037.339.339,0,0,0,.054.048.873.873,0,0,0,.3.2.315.315,0,0,0-.045.23.344.344,0,0,0,.122.19c-.048.058-.112.13-.166.188a.242.242,0,0,0-.131-.038.252.252,0,0,0-.073.011A.554.554,0,0,1,535.25,159.613Z" transform="translate(-503.248 -156.771)" fill="#464c51" stroke="#464c51" stroke-width="1"/>
          <path id="패스_423" data-name="패스 423" d="M349.284,269.993a.141.141,0,0,0-.062-.02s-.009,0-.022.01c-.016.027.01.1.024.133l0,.005a.191.191,0,0,0,.019.029l.013,0c.108-.025.143-.064.156-.093l-.033-.015A1.04,1.04,0,0,1,349.284,269.993Z" transform="translate(-344.579 -254.503)" fill="#aecc62" stroke="#464c51" stroke-width="1"/>
          <path id="패스_424" data-name="패스 424" d="M349.472,271.411h0v.186h0Z" transform="translate(-344.815 -255.762)" fill="#aecc62" stroke="#464c51" stroke-width="1"/>
          <path id="패스_425" data-name="패스 425" d="M346.994,267.089a.576.576,0,0,1-.059-.028.554.554,0,0,0-.613.026.409.409,0,0,0-.1.525l.006.015a.153.153,0,0,0,.008.019.444.444,0,0,0,.412.261.6.6,0,0,0,.137-.017.566.566,0,0,0,.479-.419C347.313,267.229,347.089,267.131,346.994,267.089Zm-.321.44-.013,0a.186.186,0,0,1-.019-.029l0-.005c-.014-.037-.04-.107-.024-.133.013-.01.019-.01.022-.01a.141.141,0,0,1,.062.02,1.044,1.044,0,0,0,.1.048l.033.015C346.816,267.466,346.781,267.5,346.673,267.53Zm-.023.189v-.186h0v.186h0Z" transform="translate(-341.993 -251.885)" fill="#464c51" stroke="#464c51" stroke-width="1"/>
          <path id="패스_426" data-name="패스 426" d="M351.6,152.2l-.157.109a.221.221,0,0,1-.045.024.586.586,0,0,1-.217.045.4.4,0,0,1-.39-.278c-.021-.057-.044-.114-.066-.172l-.036-.093a.164.164,0,0,1,.018-.151c0-.012-.013-.029-.019-.041a.416.416,0,0,1,.081-.5.19.19,0,0,0-.025-.183.152.152,0,0,0-.11-.077c-.036,0-.07,0-.09,0a.447.447,0,0,1-.346-.125.363.363,0,0,1,0-.388.222.222,0,0,0,.013-.043l-.006,0a.221.221,0,0,1-.1-.058c-.112-.024-.22-.054-.326-.083a1.959,1.959,0,0,0-.7-.106l.007.063a.182.182,0,0,1-.117.183.247.247,0,0,1-.242-.024,2.687,2.687,0,0,0-.949-.49.229.229,0,0,1-.088-.044l-.038-.033a.4.4,0,0,0-.049-.039c-.169-.106-.484-.3-.337-.685,0-.011-.017-.025-.061-.036l-.077-.02a1.258,1.258,0,0,0-.306-.055c-.049,0-.056.01-.065.02a.516.516,0,0,1-.39.188.548.548,0,0,1-.389-.175.4.4,0,0,0-.3-.133.411.411,0,0,1-.22-.063l-.224.026a1.335,1.335,0,0,0-.421.223.294.294,0,0,1-.153.048l-.17,0c-.207,0-.421-.008-.638-.033l-.071-.009a1.33,1.33,0,0,0-.164-.015.2.2,0,0,0-.13.035.233.233,0,0,1-.1.042l-.14.022a1.8,1.8,0,0,0-.546.152.245.245,0,0,1-.1.026,1.075,1.075,0,0,0-.439.1l-.013.006a.248.248,0,0,1-.143.027.51.51,0,0,0-.17.025l-.141.034a3.367,3.367,0,0,1-.8.123c-.059,0-.117,0-.174-.008a.249.249,0,0,1-.045-.009,1.817,1.817,0,0,1-.626-.357.547.547,0,0,1-.217.295.221.221,0,0,1-.049.03h0a.245.245,0,0,1-.04.013.27.27,0,0,0-.09.071.692.692,0,0,1-.208.154.25.25,0,0,1-.052.016,3.58,3.58,0,0,1-1.128.022.728.728,0,0,0-.075-.006.962.962,0,0,1-.807.512,1.176,1.176,0,0,1-.418-.085.179.179,0,0,0-.177.062.817.817,0,0,1-.99.158.412.412,0,0,0-.159-.04.249.249,0,0,0-.168.072.242.242,0,0,1-.188.051c-.045-.006-.092-.016-.137-.027a.741.741,0,0,0-.134-.022c-.014,0-.027,0-.056.044a.333.333,0,0,1-.289.136.853.853,0,0,1-.161-.019c-.079-.015-.157-.034-.235-.052l-.089-.021a.23.23,0,0,1-.095-.046c-.11-.091-.167-.1-.186-.1a.178.178,0,0,0-.093.046.866.866,0,0,1-.794.473q-.045,0-.093,0a.472.472,0,0,1-.353.155.557.557,0,0,1-.109-.011.391.391,0,0,1-.4.316.666.666,0,0,1-.254-.056l-.011,0,0,0h0a.45.45,0,0,1-.339.133c-.038,0-.078,0-.117-.007-.023,0-.045,0-.067,0l-.011,0-.022.01-.053.031a.672.672,0,0,1-.363.122.56.56,0,0,1-.086-.007.553.553,0,0,1-.482.221l-.1,0a.789.789,0,0,0-.123,0,.237.237,0,0,1-.193-.062c-.021-.02-.041-.043-.061-.065a.829.829,0,0,0-.071-.072c-.041.02-.084.038-.128.057a.639.639,0,0,0-.3.194.433.433,0,0,1-.382.209.713.713,0,0,1-.2-.03.863.863,0,0,0-.19-.04h0a1.658,1.658,0,0,1-.886.439l-.084.022a.252.252,0,0,1-.111,0l-.191-.037c-.156-.03-.313-.06-.47-.086l-.026,0-.092.171a.191.191,0,0,1-.016.025.121.121,0,0,0-.018.1.508.508,0,0,1-.3.541.251.251,0,0,1-.123.032h0a2.044,2.044,0,0,0-.256.022,1.942,1.942,0,0,1-.44.02.454.454,0,0,0-.076,0,.179.179,0,0,0-.006.034.452.452,0,0,1-.271.345.248.248,0,0,1-.144.03l-.075-.007-.142-.013a1.219,1.219,0,0,1-.06.269,1.061,1.061,0,0,0-.044.181.817.817,0,0,1-.252.636,1.583,1.583,0,0,0-.125.168.23.23,0,0,1-.232.1.252.252,0,0,1-.04.014.335.335,0,0,0-.14.09.821.821,0,0,1-.17.114l-.055.031-.005,0,0,0a.133.133,0,0,0-.056.052.237.237,0,0,1-.215.121.421.421,0,0,1-.228-.083c-.028.027-.057.051-.086.076-.132.112-.15.141-.129.208a.162.162,0,0,1,0,.086.422.422,0,0,1-.313.275c-.017.006-.04.014-.054.02a.175.175,0,0,1-.013.03l-.044.081a.2.2,0,0,1-.094.086,1.113,1.113,0,0,1-.361.108.507.507,0,0,0-.3.085.219.219,0,0,1-.074.045l-.088.033-.031.009c-.151.034-.153.05-.154.07-.009.107-.007.214-.005.329,0,.051,0,.1,0,.153a.164.164,0,0,1-.019.076.336.336,0,0,1-.3.184.561.561,0,0,1-.174-.033l-.035-.01a.5.5,0,0,0-.115-.019.325.325,0,0,0-.011.1c0,.094,0,.188,0,.281v.131a.166.166,0,0,1-.022.082.348.348,0,0,1,.149.173.384.384,0,0,1-.079.337l-.01.016c-.013.021-.029.043-.044.064s-.022.03-.03.044l.024.018a.37.37,0,0,1,.191.287.294.294,0,0,1-.152.233.588.588,0,0,0-.1.1l-.042.045a.554.554,0,0,1,.073.095.563.563,0,0,1,.3.433c0,.033.014.038.034.045a.214.214,0,0,1,.093.066c.039.049.077.1.113.152a1.469,1.469,0,0,0,.223.266l.127.11a1.5,1.5,0,0,0,1.119.526.244.244,0,0,1,.167.052l.055.007c.09.01.33.037.382.26l0,.006.051-.013a.23.23,0,0,1,.267.106,1.245,1.245,0,0,1,.084.252c.042.167.07.257.187.313a.219.219,0,0,1,.053.035l.089.083c.062.059.124.117.19.172a.424.424,0,0,0,.074.038.481.481,0,0,1,.295.273.161.161,0,0,1,.006.075.789.789,0,0,0-.016.249.649.649,0,0,0,.131.009l.12,0,.092-.008c.172-.009.208-.02.24-.072a.223.223,0,0,1,.182-.1h.01a.229.229,0,0,1,.182.084.463.463,0,0,1,.064.116.38.38,0,0,0,.064-.023.475.475,0,0,0-.054-.136.323.323,0,0,1,.018-.322.3.3,0,0,0,.017-.035.2.2,0,0,1,.028-.062.29.29,0,0,0,.022-.185.887.887,0,0,1,0-.2.184.184,0,0,1,.088-.127l.249-.156a.241.241,0,0,1,.112-.035.435.435,0,0,0,.38-.2.666.666,0,0,1,.557-.312.734.734,0,0,1,.506.215l.028.026a.243.243,0,0,1,.092.027.4.4,0,0,0,.18.056.255.255,0,0,0,.157-.061.593.593,0,0,1,.6-.1.2.2,0,0,1,.115.119c.022.071.052.083.123.083a.189.189,0,0,0,.122-.05c.01-.008.02-.018.03-.028a.447.447,0,0,1,.325-.149.472.472,0,0,1,.087.008.229.229,0,0,1,.11.053l.039-.011a1.7,1.7,0,0,0,.426-.181.229.229,0,0,1,.04-.021l.089-.035c.058-.023.117-.046.173-.072a.871.871,0,0,1,.375-.1.531.531,0,0,1,.45.273.29.29,0,0,0,.264.167.737.737,0,0,0,.18-.027,3.422,3.422,0,0,0,.444-.138,1.067,1.067,0,0,1,.4-.1.56.56,0,0,1,.493.391.166.166,0,0,1,.018.064.361.361,0,0,0,.125.236.144.144,0,0,0,.1.044.155.155,0,0,0,.13-.085.181.181,0,0,1,.023-.031.893.893,0,0,1,.9-.243l.031.007a.717.717,0,0,0,.162.024c.068,0,.134-.013.255-.166a.205.205,0,0,1,.051-.046.65.65,0,0,1,.641-.054h0a.575.575,0,0,1,.538-.051l.075.03a.483.483,0,0,0,.109.037.736.736,0,0,1,.76.157.357.357,0,0,1,.1-.287.363.363,0,0,1,.259-.094.761.761,0,0,1,.243.047c.168.057.327.127.481.195l.2.085a.219.219,0,0,1,.053.031.921.921,0,0,1,.36-.1.891.891,0,0,0,.136-.024l.035-.01a.492.492,0,0,0,.086-.03.147.147,0,0,1,.022-.058l.147-.208a.2.2,0,0,1,.063-.057.209.209,0,0,0,.083-.07.186.186,0,0,1,.041-.052.87.87,0,0,1,.46-.2c.05-.011.1-.023.134-.032a1.966,1.966,0,0,0,.006-.239.2.2,0,0,1,.2-.187,2.734,2.734,0,0,1,.354,0c.059,0,.118.005.177.005a.872.872,0,0,0,.256-.031.668.668,0,0,1,.334-.1.511.511,0,0,1,.181.033.746.746,0,0,0,.324.01.248.248,0,0,1,.151.03.273.273,0,0,0,.141.042.854.854,0,0,0,.315-.1l.089-.04.018-.007.371-.128a.255.255,0,0,1,.1-.013,1.24,1.24,0,0,0,.612-.087.568.568,0,0,1,.51.01.358.358,0,0,0,.129.04.05.05,0,0,0,.028-.008c.024-.029.045-.061.067-.092a.719.719,0,0,1,.533-.369l.02-.006a.572.572,0,0,1,.161-.019h.022a.623.623,0,0,1,.156-.268l.038-.045.142-.2a.225.225,0,0,1,.162-.088.987.987,0,0,1,.434.076.669.669,0,0,0,.2.051h0l.028,0h0s.009,0,.013,0l.129,0a.231.231,0,0,1,.162.071l.021.007a.407.407,0,0,0,.163-.058c.034-.017.069-.035.1-.05l.079-.038a1.507,1.507,0,0,1,1.091-.079c.014-.01.022-.029.026-.071a.472.472,0,0,1,.382-.423.27.27,0,0,0,.038-.012.242.242,0,0,0-.019-.05.413.413,0,0,1-.02-.412.457.457,0,0,1,.321-.173c-.093-.3.191-.421.316-.474l.02-.008.075-.049h0a.363.363,0,0,0,.014-.145.625.625,0,0,1,.044-.286c-.045-.424.3-.635.582-.806a4.532,4.532,0,0,1,.951-.475.385.385,0,0,1,.061-.562.218.218,0,0,1,.044-.031l.144-.076s0-.008,0-.029a1,1,0,0,1,.12-.549.209.209,0,0,1,.134-.106.484.484,0,0,1,.129-.018.576.576,0,0,1,.286.086.394.394,0,0,0,.058.028l.024.008.041.014,0-.007s-.011-.01-.032-.024a1.026,1.026,0,0,1-.424-.506.545.545,0,0,1,.217-.615c.028-.027.057-.054.081-.082a.353.353,0,0,1,.262-.123A1.626,1.626,0,0,1,351.6,152.2Z" transform="translate(-320.179 -148.364)" fill="#dcf0e5" stroke="#464c51" stroke-width="1"/>
          <path id="패스_427" data-name="패스 427" d="M349.455,149.776a.376.376,0,0,1-.037-.015.506.506,0,0,0-.1-.043,1.142,1.142,0,0,1-.061-.372.315.315,0,0,0-.1-.256.361.361,0,0,0-.451.021l-.27.187,0,0c-.022-.059-.045-.117-.068-.176l-.008-.021a.366.366,0,0,0-.041-.291c-.022-.045-.023-.074.029-.127a.178.178,0,0,0,.02-.024.5.5,0,0,0-.016-.567.587.587,0,0,0-.523-.265l.006-.016a.344.344,0,0,0-.184-.49.253.253,0,0,0-.15-.085c-.117-.021-.235-.054-.36-.088a2.7,2.7,0,0,0-.729-.129,1.4,1.4,0,0,0-.4.057l-.02.007h0l-.028.013h0a.215.215,0,0,0-.032.022,2.759,2.759,0,0,0-.737-.333.753.753,0,0,0-.1-.073c-.206-.129-.219-.169-.18-.267a.327.327,0,0,0-.024-.3.523.523,0,0,0-.328-.214l-.072-.019a1.68,1.68,0,0,0-.434-.071h-.03a.519.519,0,0,0-.38.165c-.025.028-.042.039-.044.042a.22.22,0,0,1-.062-.046.858.858,0,0,0-.6-.26l0,0a.238.238,0,0,0-.2-.069l-.342.04-.026,0a1.566,1.566,0,0,0-.542.26l-.094,0c-.2,0-.4-.008-.59-.03l-.062-.008a1.743,1.743,0,0,0-.23-.019.692.692,0,0,0-.362.091l-.089.014a2.387,2.387,0,0,0-.641.175,1.537,1.537,0,0,0-.547.126,1.114,1.114,0,0,0-.267.041l-.14.033a2.521,2.521,0,0,1-.78.106,1.526,1.526,0,0,1-.465-.285c-.046-.036-.092-.072-.139-.107a.219.219,0,0,0-.043-.025.494.494,0,0,0-.2-.047c-.115,0-.31.046-.316.352a.131.131,0,0,1-.06.11.655.655,0,0,0-.248.17.6.6,0,0,1-.064.058,3.168,3.168,0,0,1-.938.009,1.224,1.224,0,0,0-.132-.009.425.425,0,0,0-.373.182c-.186.29-.318.33-.433.33a.69.69,0,0,1-.24-.052.663.663,0,0,0-.693.168.3.3,0,0,1-.232.115.577.577,0,0,1-.222-.055.761.761,0,0,0-.734.03h-.005a1.111,1.111,0,0,0-.244-.034.5.5,0,0,0-.39.174l-.02,0c-.072-.014-.142-.031-.213-.048l-.04-.01a.631.631,0,0,0-.881.012.189.189,0,0,0-.04.052.431.431,0,0,1-.413.282.79.79,0,0,1-.142-.014.237.237,0,0,0-.221.071l-.018.021c-.023.027-.057.067-.064.073a.126.126,0,0,1-.036-.008.4.4,0,0,0-.123-.02.377.377,0,0,0-.376.308c0,.007,0,.013,0,.018l-.034-.012a.621.621,0,0,0-.235-.054.37.37,0,0,0-.3.148l0,0c-.022,0-.044,0-.067,0a.621.621,0,0,0-.355.048c-.034.017-.067.037-.1.057a.4.4,0,0,1-.1.05.4.4,0,0,0-.177-.043.308.308,0,0,0-.309.241c-.014.013-.034.019-.092.019l-.076,0-.071,0a.519.519,0,0,0-.391-.2.507.507,0,0,0-.219.052c-.036.017-.073.033-.111.049a1,1,0,0,0-.491.351l-.008.012a.368.368,0,0,1-.052-.011,1.185,1.185,0,0,0-.324-.058.435.435,0,0,0-.343.14,1.239,1.239,0,0,1-.67.315l-.031.008-.134-.026c-.161-.031-.322-.062-.483-.089a.454.454,0,0,0-.5.2l-.091.17a.458.458,0,0,0-.076.344.14.14,0,0,1-.062.152c-.085,0-.167.014-.246.024a1.461,1.461,0,0,1-.326.018c-.34-.035-.545.1-.567.374a.084.084,0,0,1-.021.024l-.165-.015c-.26-.02-.445.118-.445.324a.807.807,0,0,1-.047.225,1.191,1.191,0,0,0-.059.27.159.159,0,0,0,0,.04c.024.134-.051.235-.176.39-.029.036-.059.073-.088.112a.464.464,0,0,0-.107.032.775.775,0,0,0-.3.186.537.537,0,0,1-.084.052l-.039.022a.236.236,0,0,0-.074.046l-.035.025a.432.432,0,0,0-.2-.051.381.381,0,0,0-.279.123,1.107,1.107,0,0,1-.1.087.558.558,0,0,0-.263.476l-.033.012a.432.432,0,0,0-.308.257l0,0a.509.509,0,0,1-.142.038.965.965,0,0,0-.535.173l-.035.013c-.143.033-.438.111-.461.4-.01.122-.008.242-.006.358h0a.931.931,0,0,0-.212-.027.418.418,0,0,0-.446.478c0,.092,0,.185,0,.277v.075a.289.289,0,0,0-.048.23.294.294,0,0,0,.174.194h0c-.009.016-.02.034-.029.048l-.011.017c-.009.014-.019.027-.029.041a.336.336,0,0,0-.008.471l.013.012c.019.017.041.034.064.052a1.19,1.19,0,0,0-.11.11.575.575,0,0,1-.089.086.178.178,0,0,0-.081.145v.087a.177.177,0,0,0,.074.141.256.256,0,0,1,.091.1.2.2,0,0,0,.1.1.219.219,0,0,1,.145.179.405.405,0,0,0,.231.328c.025.033.049.066.072.1a1.771,1.771,0,0,0,.288.335l.123.107a1.992,1.992,0,0,0,1.355.64h.021a.649.649,0,0,0,.22.054l.022,0a.376.376,0,0,0,.383.274l.011.044a.736.736,0,0,0,.368.543l.063.06c.067.063.136.128.21.19a.731.731,0,0,0,.175.1.62.62,0,0,1,.062.031.532.532,0,0,0,.1.485.643.643,0,0,0,.461.132c.043,0,.09,0,.143,0a.492.492,0,0,0,.054-.006l.042,0a1.119,1.119,0,0,0,.33-.054.357.357,0,0,0,.14.093.248.248,0,0,0,.089.016.251.251,0,0,0,.045,0,.7.7,0,0,0,.5-.249.457.457,0,0,0-.045-.45l.014-.027a.57.57,0,0,0,.037-.084.591.591,0,0,0,.066-.37c0-.018,0-.036,0-.053l.116-.073a.866.866,0,0,0,.661-.378.241.241,0,0,1,.179-.123.279.279,0,0,1,.181.091.477.477,0,0,0,.256.142.744.744,0,0,0,.81-.06.35.35,0,0,1,.07-.042.552.552,0,0,0,.5.239.666.666,0,0,0,.413-.15c.019-.015.037-.032.055-.05a.6.6,0,0,0,.39,0,2.183,2.183,0,0,0,.521-.223l.063-.025c.069-.027.137-.054.2-.085a.5.5,0,0,1,.162-.058s.026.012.07.081a.732.732,0,0,0,.646.36,1.214,1.214,0,0,0,.306-.043,3.864,3.864,0,0,0,.507-.159.892.892,0,0,1,.2-.066.591.591,0,0,1,.088.138.717.717,0,0,0,.23.426.611.611,0,0,0,.934-.1.439.439,0,0,1,.452-.094,1.214,1.214,0,0,0,.284.038.735.735,0,0,0,.592-.3.145.145,0,0,1,.151-.008.543.543,0,0,0,.224.054.383.383,0,0,0,.251-.09.066.066,0,0,1,.039-.014.182.182,0,0,1,.059.013l.056.022a.759.759,0,0,0,.3.074.493.493,0,0,0,.139-.02.467.467,0,0,1,.13-.022.24.24,0,0,1,.2.108.426.426,0,0,0,.517.082.339.339,0,0,0,.215-.351c.147.05.289.113.44.179l.155.067a.382.382,0,0,0,.511.046.358.358,0,0,1,.206-.061,1.292,1.292,0,0,0,.217-.041l.03-.009a.475.475,0,0,0,.358-.272l.107-.151a.583.583,0,0,0,.172-.164.438.438,0,0,1,.207-.077l.018,0c.384-.085.46-.178.473-.452l.094,0c.067,0,.133.006.2.006a1.35,1.35,0,0,0,.437-.063.222.222,0,0,0,.041-.019.311.311,0,0,1,.118-.049.906.906,0,0,0,.325.056,1.6,1.6,0,0,0,.16-.009.751.751,0,0,0,.308.066,1.23,1.23,0,0,0,.522-.148l.073-.033.314-.109a1.678,1.678,0,0,0,.8-.133.1.1,0,0,1,.034-.01.172.172,0,0,1,.064.02.8.8,0,0,0,.335.085.54.54,0,0,0,.334-.113.2.2,0,0,0,.028-.026,1.493,1.493,0,0,0,.108-.143c.094-.136.136-.184.237-.191a.248.248,0,0,0,.081-.02h.082c.32,0,.376-.2.386-.285,0-.044.03-.075.082-.135.016-.018.032-.037.053-.064l.078-.109c.039.009.082.025.129.041a1.03,1.03,0,0,0,.4.078h.03a.345.345,0,0,0,.145.059.525.525,0,0,0,.162.025.812.812,0,0,0,.374-.113c.027-.014.053-.027.088-.043l.08-.038a1,1,0,0,1,.787-.039.253.253,0,0,0,.116.012.459.459,0,0,0,.44-.421c.008-.08.045-.09.07-.1a.467.467,0,0,0,.316-.207.366.366,0,0,0-.015-.355.76.76,0,0,1-.03-.075l.028,0a.435.435,0,0,0,.3-.169.272.272,0,0,0,.028-.27.166.166,0,0,1-.008-.024.941.941,0,0,1,.088-.04l.042-.018a.213.213,0,0,0,.033-.018l.126-.082a.226.226,0,0,0,.028-.022.316.316,0,0,0,.081-.12.63.63,0,0,0,.043-.285.3.3,0,0,1,.021-.156.166.166,0,0,0,.027-.123c-.04-.214.083-.313.4-.5a3.7,3.7,0,0,1,.967-.464.235.235,0,0,0,.041-.015.31.31,0,0,0,.189-.2.321.321,0,0,0-.118-.285c-.05-.053-.049-.072-.02-.1l.121-.064a.369.369,0,0,0,.2-.381.514.514,0,0,1,.028-.223.733.733,0,0,0,.1.046l.021.007a.706.706,0,0,0,.238.051.391.391,0,0,0,.322-.159.353.353,0,0,0-.12-.551.649.649,0,0,1-.273-.324c-.032-.084,0-.127.127-.252l.059-.058a.739.739,0,0,0,.151.06.542.542,0,0,0,.246.063.373.373,0,0,0,.334-.186.244.244,0,0,0,.018-.224A.382.382,0,0,0,349.455,149.776Zm-.814.195c-.024.028-.053.055-.081.082a.545.545,0,0,0-.217.615,1.027,1.027,0,0,0,.424.506c.021.014.03.023.032.024l0,.007-.041-.014-.024-.008a.4.4,0,0,1-.058-.028.576.576,0,0,0-.286-.086.483.483,0,0,0-.128.018.209.209,0,0,0-.134.106,1,1,0,0,0-.12.549c0,.02,0,.028,0,.029l-.144.076a.219.219,0,0,0-.044.031.385.385,0,0,0-.061.562,4.533,4.533,0,0,0-.951.475c-.281.171-.628.382-.582.806a.625.625,0,0,0-.044.286.364.364,0,0,1-.014.145h0l-.075.049-.02.008c-.125.053-.409.172-.316.474a.457.457,0,0,0-.321.173.413.413,0,0,0,.02.412.24.24,0,0,1,.019.05.269.269,0,0,1-.038.012.472.472,0,0,0-.382.423c0,.043-.012.062-.026.071a1.507,1.507,0,0,0-1.091.079l-.079.038c-.035.015-.069.033-.1.05a.406.406,0,0,1-.163.058l-.021-.007a.231.231,0,0,0-.162-.071l-.129,0s-.013,0-.013,0h-.03a.67.67,0,0,1-.2-.051.987.987,0,0,0-.434-.076.225.225,0,0,0-.162.088l-.142.2-.038.045a.622.622,0,0,0-.156.268h-.022a.571.571,0,0,0-.161.019l-.02.006a.719.719,0,0,0-.533.369c-.022.031-.043.063-.067.092a.05.05,0,0,1-.028.008.359.359,0,0,1-.129-.04.568.568,0,0,0-.51-.01,1.239,1.239,0,0,1-.612.087.254.254,0,0,0-.1.013l-.371.128-.018.007-.089.04a.853.853,0,0,1-.315.1.273.273,0,0,1-.141-.042.248.248,0,0,0-.151-.029.746.746,0,0,1-.324-.01.511.511,0,0,0-.181-.033.668.668,0,0,0-.334.1.872.872,0,0,1-.256.031c-.059,0-.118,0-.177-.005a2.732,2.732,0,0,0-.354,0,.2.2,0,0,0-.2.187,1.962,1.962,0,0,1-.006.239c-.03.009-.084.021-.134.032a.87.87,0,0,0-.46.2.186.186,0,0,0-.041.052.209.209,0,0,1-.083.07.2.2,0,0,0-.063.057l-.147.208a.146.146,0,0,0-.022.058.494.494,0,0,1-.086.03l-.035.01a.888.888,0,0,1-.136.024.921.921,0,0,0-.36.1.218.218,0,0,0-.053-.031l-.2-.085c-.154-.068-.313-.138-.481-.195a.761.761,0,0,0-.243-.047.363.363,0,0,0-.259.094.357.357,0,0,0-.1.287.736.736,0,0,0-.76-.157.481.481,0,0,1-.109-.037l-.075-.03a.575.575,0,0,0-.538.051h0a.65.65,0,0,0-.641.054.207.207,0,0,0-.051.046c-.121.154-.187.166-.255.166a.718.718,0,0,1-.162-.024l-.031-.007a.893.893,0,0,0-.9.243.181.181,0,0,0-.022.031.155.155,0,0,1-.13.085.144.144,0,0,1-.1-.044.361.361,0,0,1-.125-.236.167.167,0,0,0-.018-.064.56.56,0,0,0-.493-.391,1.067,1.067,0,0,0-.4.1,3.423,3.423,0,0,1-.444.138.739.739,0,0,1-.18.027.29.29,0,0,1-.265-.167.531.531,0,0,0-.45-.273.871.871,0,0,0-.375.1c-.056.027-.114.049-.173.072l-.089.035a.23.23,0,0,0-.04.021,1.7,1.7,0,0,1-.426.181l-.039.011a.229.229,0,0,0-.11-.053.471.471,0,0,0-.087-.008.447.447,0,0,0-.325.149c-.01.01-.02.019-.03.028a.189.189,0,0,1-.122.05c-.072,0-.1-.013-.123-.084a.2.2,0,0,0-.115-.119.593.593,0,0,0-.6.1.255.255,0,0,1-.157.061.4.4,0,0,1-.18-.056.243.243,0,0,0-.092-.027l-.028-.026a.734.734,0,0,0-.506-.215.666.666,0,0,0-.557.312.435.435,0,0,1-.38.2.242.242,0,0,0-.112.035l-.249.156a.184.184,0,0,0-.088.127.887.887,0,0,0,0,.2.29.29,0,0,1-.022.185.2.2,0,0,0-.028.062.3.3,0,0,1-.017.035.323.323,0,0,0-.018.322.475.475,0,0,1,.054.136.383.383,0,0,1-.064.023.465.465,0,0,0-.064-.116.229.229,0,0,0-.182-.084h-.01a.223.223,0,0,0-.182.1c-.032.052-.068.063-.24.072l-.092.008-.12,0a.647.647,0,0,1-.131-.009.787.787,0,0,1,.016-.249.161.161,0,0,0-.006-.075.481.481,0,0,0-.295-.273.426.426,0,0,1-.074-.038c-.066-.055-.128-.114-.19-.172l-.089-.083a.217.217,0,0,0-.053-.035c-.117-.057-.145-.146-.187-.313a1.243,1.243,0,0,0-.084-.252.23.23,0,0,0-.267-.106l-.051.013,0-.006c-.052-.224-.292-.25-.382-.26l-.055-.007a.244.244,0,0,0-.167-.052,1.5,1.5,0,0,1-1.119-.526l-.127-.11a1.467,1.467,0,0,1-.223-.266c-.037-.051-.074-.1-.113-.152a.214.214,0,0,0-.093-.066c-.02-.007-.031-.013-.034-.045a.563.563,0,0,0-.3-.433.553.553,0,0,0-.073-.095l.042-.045a.586.586,0,0,1,.1-.1.294.294,0,0,0,.152-.233.371.371,0,0,0-.191-.287l-.024-.018c.008-.013.021-.031.03-.044s.031-.043.044-.064l.01-.016a.384.384,0,0,0,.079-.337.348.348,0,0,0-.149-.173.166.166,0,0,0,.022-.082v-.131c0-.094,0-.187,0-.281a.326.326,0,0,1,.011-.1.5.5,0,0,1,.115.019l.035.01a.559.559,0,0,0,.174.033.336.336,0,0,0,.3-.184.164.164,0,0,0,.019-.076c0-.051,0-.1,0-.153,0-.114,0-.222.005-.329,0-.02,0-.035.154-.07l.031-.009.088-.033a.219.219,0,0,0,.074-.045.507.507,0,0,1,.3-.085,1.113,1.113,0,0,0,.361-.108.2.2,0,0,0,.094-.086l.044-.081a.18.18,0,0,0,.013-.03c.014-.006.037-.014.054-.02a.422.422,0,0,0,.313-.275.162.162,0,0,0,0-.086c-.021-.067,0-.1.129-.208.029-.025.058-.049.086-.076a.421.421,0,0,0,.228.083.237.237,0,0,0,.215-.121.134.134,0,0,1,.056-.052l0,0,.005,0,.055-.031a.822.822,0,0,0,.17-.113.335.335,0,0,1,.14-.09.257.257,0,0,0,.04-.014.231.231,0,0,0,.232-.1,1.58,1.58,0,0,1,.125-.168.817.817,0,0,0,.252-.636,1.067,1.067,0,0,1,.044-.181,1.219,1.219,0,0,0,.06-.269l.142.013.075.007a.248.248,0,0,0,.144-.03.453.453,0,0,0,.271-.345.182.182,0,0,1,.006-.034.454.454,0,0,1,.076,0,1.941,1.941,0,0,0,.44-.02,2.047,2.047,0,0,1,.256-.022h0a.252.252,0,0,0,.123-.032.508.508,0,0,0,.3-.541.122.122,0,0,1,.018-.1.18.18,0,0,0,.016-.025l.092-.171.026,0c.157.026.313.056.47.086l.191.037a.252.252,0,0,0,.111,0l.084-.022a1.657,1.657,0,0,0,.886-.439h0a.863.863,0,0,1,.19.04.713.713,0,0,0,.2.03.433.433,0,0,0,.382-.209.639.639,0,0,1,.3-.194c.043-.019.086-.037.128-.057a.816.816,0,0,1,.071.072c.02.023.041.045.061.065a.237.237,0,0,0,.193.062.788.788,0,0,1,.123,0l.1,0a.553.553,0,0,0,.482-.221.56.56,0,0,0,.086.007.672.672,0,0,0,.363-.122l.053-.031.022-.01.011,0c.022,0,.044,0,.067,0,.039,0,.078.007.117.007a.45.45,0,0,0,.339-.133h0l0,0,.011,0a.666.666,0,0,0,.254.056.391.391,0,0,0,.4-.316.556.556,0,0,0,.109.011.472.472,0,0,0,.353-.155q.047,0,.093,0a.866.866,0,0,0,.794-.473.178.178,0,0,1,.093-.046c.019,0,.076.01.186.1a.229.229,0,0,0,.095.046l.089.021c.078.019.156.037.235.052a.856.856,0,0,0,.161.019.333.333,0,0,0,.289-.136c.029-.044.042-.044.056-.044a.742.742,0,0,1,.134.022c.046.01.092.02.138.027a.242.242,0,0,0,.188-.051.249.249,0,0,1,.168-.072.412.412,0,0,1,.159.04.817.817,0,0,0,.99-.158.179.179,0,0,1,.177-.062,1.175,1.175,0,0,0,.418.085.962.962,0,0,0,.807-.512.741.741,0,0,1,.075.006,3.58,3.58,0,0,0,1.128-.022.248.248,0,0,0,.052-.016.692.692,0,0,0,.208-.154.269.269,0,0,1,.09-.071.243.243,0,0,0,.04-.013h0a.221.221,0,0,0,.049-.03.547.547,0,0,0,.217-.295,1.817,1.817,0,0,0,.626.357.253.253,0,0,0,.045.009c.057.005.115.008.173.008a3.366,3.366,0,0,0,.8-.123l.141-.034a.51.51,0,0,1,.17-.025.248.248,0,0,0,.143-.027l.013-.006a1.075,1.075,0,0,1,.439-.1.245.245,0,0,0,.1-.026,1.8,1.8,0,0,1,.546-.152l.14-.022a.234.234,0,0,0,.1-.042.2.2,0,0,1,.13-.035,1.333,1.333,0,0,1,.164.015l.071.009c.217.025.431.029.638.033l.17,0a.3.3,0,0,0,.153-.048,1.334,1.334,0,0,1,.421-.223l.224-.026a.412.412,0,0,0,.22.063.4.4,0,0,1,.3.133.548.548,0,0,0,.389.175.516.516,0,0,0,.39-.188c.009-.01.016-.018.065-.02a1.258,1.258,0,0,1,.306.055l.077.02c.044.011.062.025.061.036-.147.382.168.579.337.685a.406.406,0,0,1,.049.039l.038.033a.229.229,0,0,0,.088.044,2.688,2.688,0,0,1,.949.49.247.247,0,0,0,.242.024.183.183,0,0,0,.117-.183l-.007-.063a1.959,1.959,0,0,1,.7.106c.105.029.214.059.326.083a.221.221,0,0,0,.1.058l.006,0a.221.221,0,0,1-.013.043.363.363,0,0,0,0,.388.447.447,0,0,0,.346.125c.021,0,.054,0,.09,0a.152.152,0,0,1,.11.077.19.19,0,0,1,.025.183.416.416,0,0,0-.081.5c.006.011.014.028.019.041a.164.164,0,0,0-.018.151l.036.093c.022.057.045.114.066.172a.4.4,0,0,0,.39.278.586.586,0,0,0,.217-.045.221.221,0,0,0,.045-.024l.157-.109a1.626,1.626,0,0,0,.078.342A.353.353,0,0,0,348.642,149.97Z" transform="translate(-317.4 -145.666)" fill="#464c51" stroke="#464c51" stroke-width="1"/>
        </g>
        <path id="패스_428" data-name="패스 428" d="M-8922.2,710.212l3.447,4.357,2.984,2.94.927.857,5.417-5.758,4.4-6.046.64-1.829-16.538,3.885Z" transform="translate(8931.586 -683.79)" fill="#fff"/>
        <g id="그룹_294" data-name="그룹 294" transform="translate(3.844)">
          <g id="그룹_292" data-name="그룹 292">
            <path id="패스_414" data-name="패스 414" d="M754.866,257.668a.374.374,0,0,1-.251-.1,56.266,56.266,0,0,1-6.275-6.845,38.325,38.325,0,0,1-4.324-6.863,18.167,18.167,0,0,1-1.983-7.711,12.847,12.847,0,0,1,12.833-12.833,13.118,13.118,0,0,1,9.405,4,12.021,12.021,0,0,1,3.427,8.851,20.325,20.325,0,0,1-2.153,7.931,38.358,38.358,0,0,1-4.3,6.836,52.346,52.346,0,0,1-6.127,6.64A.377.377,0,0,1,754.866,257.668Zm0-33.591a12.092,12.092,0,0,0-12.078,12.078c0,5.092,3.344,10.484,6.149,14.112a56.721,56.721,0,0,0,5.931,6.515,52.744,52.744,0,0,0,5.785-6.319c2.757-3.564,6.087-8.941,6.291-14.322a11.275,11.275,0,0,0-3.217-8.3A12.36,12.36,0,0,0,754.866,224.076Z" transform="translate(-742.033 -223.321)" fill="#464c51" stroke="#464c51" stroke-width="0.5"/>
            <path id="패스_416" data-name="패스 416" d="M758.421,248.39a8.681,8.681,0,1,1,8.681-8.681A8.691,8.691,0,0,1,758.421,248.39Zm0-16.607a7.926,7.926,0,1,0,7.927,7.926A7.936,7.936,0,0,0,758.421,231.783Z" transform="translate(-745.588 -226.876)" fill="#464c51" stroke="#464c51" stroke-width="0.5"/>
          </g>
          <g id="그룹_293" data-name="그룹 293" transform="translate(7.681 7.793)">
            <path id="패스_417" data-name="패스 417" d="M766,241.062v2.845h-3.378v3.378h-2.845v-3.378H756.4v-2.845h3.378v-3.378h2.845v3.378Z" transform="translate(-756.04 -237.329)" fill="#ff6d6d"/>
            <path id="패스_418" data-name="패스 418" d="M762.274,247.3h-2.845a.356.356,0,0,1-.356-.356v-3.022h-3.022a.356.356,0,0,1-.356-.356v-2.845a.356.356,0,0,1,.356-.356h3.022v-3.022a.355.355,0,0,1,.356-.355h2.845a.355.355,0,0,1,.355.355v3.022h3.023a.355.355,0,0,1,.355.356v2.845a.355.355,0,0,1-.355.356h-3.023v3.022A.355.355,0,0,1,762.274,247.3Zm-2.49-.712h2.134v-3.022a.356.356,0,0,1,.356-.356H765.3v-2.133h-3.023a.356.356,0,0,1-.356-.356V237.7h-2.134v3.022a.355.355,0,0,1-.355.356h-3.023v2.133h3.023a.355.355,0,0,1,.355.356v3.022Z" transform="translate(-755.695 -236.984)" fill="#464c51" stroke="#464c51" stroke-width="0.5"/>
          </g>
        </g>
      </g>
    </g>
  </g>
</svg>
