<svg xmlns="http://www.w3.org/2000/svg" width="46.713" height="35.001" viewBox="0 0 46.713 35.001">
  <g id="그룹_359" data-name="그룹 359" transform="translate(-224.201 -112.328)">
    <path id="패스_402" data-name="패스 402" d="M273.891,167.244H245.472V147.28h1.721v18.243H272.17V147.968h1.721Z" transform="translate(-12.12 -19.915)" fill="#464c51"/>
    <g id="그룹_289" data-name="그룹 289" transform="translate(229.017 112.328)">
      <path id="패스_403" data-name="패스 403" d="M240.55,131.385l-2.449-1.3,4.928-9.251,12.232-6.265,12.282,5.991,4.59,9.468-2.5,1.211-4.171-8.6-10.173-4.962L245.069,122.9Z" transform="translate(-236.937 -113.602)" fill="#716ebe"/>
      <path id="패스_404" data-name="패스 404" d="M239.363,131.275l-3.968-2.114,5.459-10.249,12.855-6.584,12.936,6.31,5.1,10.51-4.046,1.962L263.277,122l-9.518-4.643-9.6,4.916Zm-1.64-2.824.931.5,4.241-7.961,10.845-5.554,10.826,5.281,3.926,8.1.95-.46-4.085-8.426-11.628-5.672L242.12,120.2Z" transform="translate(-235.395 -112.328)" fill="#464c51"/>
    </g>
    <path id="패스_405" data-name="패스 405" d="M278,138.188h-5.672v-5.946H278Zm-4.381-1.291h3.091v-3.365h-3.091Z" transform="translate(-27.424 -11.347)" fill="#464c51"/>
    <path id="패스_406" data-name="패스 406" d="M276.307,176.063H264.748V163.135h11.559Zm-10.268-1.291h8.978V164.426h-8.978Z" transform="translate(-23.103 -28.949)" fill="#464c51"/>
    <rect id="사각형_787" data-name="사각형 787" width="9.858" height="1.291" transform="translate(242.154 139.799)" fill="#464c51"/>
    <rect id="사각형_788" data-name="사각형 788" width="1.291" height="11.138" transform="translate(246.71 135.242)" fill="#464c51"/>
    <rect id="사각형_789" data-name="사각형 789" width="8.923" height="2.975" transform="translate(261.215 140.959)" fill="#464c51"/>
    <path id="패스_407" data-name="패스 407" d="M317.469,178.374h-2.776v-9.518l1.388-1.653,1.388,1.653Z" transform="translate(-51.561 -31.267)" fill="#464c51"/>
    <path id="패스_408" data-name="패스 408" d="M329.106,178.374H326.33v-9.518l1.388-1.653,1.388,1.653Z" transform="translate(-58.192 -31.267)" fill="#464c51"/>
    <rect id="사각형_790" data-name="사각형 790" width="8.923" height="2.975" transform="translate(224.978 140.959)" fill="#464c51"/>
    <path id="패스_409" data-name="패스 409" d="M235.839,178.374h2.776v-9.518l-1.388-1.653-1.388,1.653Z" transform="translate(-6.631 -31.267)" fill="#464c51"/>
    <path id="패스_410" data-name="패스 410" d="M224.2,178.374h2.776v-9.518l-1.388-1.653-1.388,1.653Z" transform="translate(0 -31.267)" fill="#464c51"/>
  </g>
</svg>
