<svg id="그룹_285" data-name="그룹 285" xmlns="http://www.w3.org/2000/svg" xmlns:xlink="http://www.w3.org/1999/xlink" width="51.159" height="19.926" viewBox="0 0 51.159 19.926">
  <defs>
    <clipPath id="clip-path">
      <rect id="사각형_338" data-name="사각형 338" width="51.159" height="19.926" fill="none"/>
    </clipPath>
  </defs>
  <g id="그룹_282" data-name="그룹 282" transform="translate(0 0)" clip-path="url(#clip-path)">
    <path id="패스_391" data-name="패스 391" d="M90.945.057a.218.218,0,0,0-.1-.051c-.151-.032-.295.077-.522.25l-.17.134c-.615.326-1.079,1.851-1.185,2.478-.016.013-.029.013-.06.038a2.66,2.66,0,0,0-1.777-1.345c.282,1.082,1.236,4.355,2.507,4.073.644-.141,1.992-2.856,2-4.355V1.223c-.01-.788-.375-1.07-.7-1.166" transform="translate(-58.486 0)" fill="#ed6b00"/>
    <path id="패스_392" data-name="패스 392" d="M115.983,50.85a10.5,10.5,0,0,0-3.685.487,1.367,1.367,0,0,0-.58.416c.022.327-.176.852.134.974.016,0,.016.051.029.077.087.089.183.1.272.218.061.083.109-.007.173.026.029.032.042.083.074.089.154.071.291.045.445.109.074.07.157.058.23.07.048-.019.106.089.122.115a1.911,1.911,0,0,0,.852.006c.884-.013.717-.1,1.6-.115.746-.006,1.47.1,2.212.1.4-.019.842,0,1.242-.032.711-.038,1.425.071,2.139.077.355-.006.771.134,1.13.16a5.265,5.265,0,0,1,1.143-.019,1.07,1.07,0,0,1,.375.045.885.885,0,0,0,.352.128,2.3,2.3,0,0,0,.974-.23,2.074,2.074,0,0,0,.579-.2.523.523,0,0,0,.211-.333,1.384,1.384,0,0,0,.067-.865c-.016,0-.064.026-.08,0-.032-.051-.026-.173-.07-.179a2.953,2.953,0,0,0-.429-.1c-.189-.045-.381-.128-.567-.167a48.51,48.51,0,0,0-8.943-.845" transform="translate(-74.958 -34.121)" fill="#00905f"/>
    <path id="패스_393" data-name="패스 393" d="M25.607,51.312c.16.038.343.032.429.141.09.083-.086.218-.074.326,0,.263.1.506.093.762a.166.166,0,0,1-.064.135.747.747,0,0,1-.2.179c-.221.141-.519.09-.768.16A5.66,5.66,0,0,1,24,53.188a13.574,13.574,0,0,1-1.835-.083,1.747,1.747,0,0,0-.691.1,2.99,2.99,0,0,1-.858.051c-1.5-.051-2.955-.089-4.441-.077-.259.013-.544.045-.8.058-1.194.064-2.389.045-3.58.077-.416.007-.832.019-1.255.013-.227,0-.464.007-.672.013-.88.045-1.793.083-2.677.045-.34.013-.7.013-1.041.013a27.229,27.229,0,0,1-2.981.16A5.04,5.04,0,0,1,1.073,53,2.824,2.824,0,0,1,0,52.048a1.215,1.215,0,0,1,.714-.378c.66-.179,1.281-.295,1.953-.41.563-.1,1.082-.141,1.63-.192a133.631,133.631,0,0,1,18.274-.186,19.836,19.836,0,0,1,3.035.429" transform="translate(0 -34)" fill="#0061b1"/>
    <path id="패스_394" data-name="패스 394" d="M117.717,27.26v-.243c-.138-.211-.1-.45-.269-.655a2.3,2.3,0,0,0-.138-.576c0-.083-.045-.2.042-.282-.086-.166-.042-.372-.086-.531.134-.128.045-.333-.048-.455a.141.141,0,0,0,.048-.122,1.234,1.234,0,0,1-.134-.371c-.048-.122-.221-.084-.221-.2a2.322,2.322,0,0,0-.756-.045c-.051-.038-.089-.038-.089-.128h-.228a.732.732,0,0,0-.493-.282v.083c-.038.083-.1.083-.176.083-.064.084-.166.166-.134.327,0,.038-.032.038-.064.038a1.781,1.781,0,0,1-.035.41,7.753,7.753,0,0,0-.343,1.146.246.246,0,0,0-.1.2c-.173.205-.339.41-.509.609a.357.357,0,0,0-.307.211h-.067a.371.371,0,0,1-.3.16c0,.085-.1,0-.1.085H112.8c-.131-.13-.256-.161-.32-.328v-.083a1.015,1.015,0,0,1-.128-.448c-.1-.205-.067-.448-.16-.653.035-.122-.032-.243.035-.333,0-.077-.1-.16-.067-.243-.029,0-.064,0-.064-.038a.655.655,0,0,0-.064-.365c-.032,0-.061,0-.061-.045v-.083H111.9c-.064-.122-.019-.2-.067-.295a1,1,0,0,0-.394-.134.621.621,0,0,0-.417.16l.032.051a1.77,1.77,0,0,0-.3.461c-.045.045-.128.083-.128.167.045,0,.045.045.045.083-.131.077-.086.2-.173.281l.042.045c-.042.122-.125.243-.17.365a1.015,1.015,0,0,1-.084.493c0,.045,0,.084.042.084a1.114,1.114,0,0,0-.042.531.141.141,0,0,0-.045.122c.086.162-.067.309-.022.482a.754.754,0,0,1,.09.339,1,1,0,0,0,.09.089c.045.256.176.468.221.73.041,0,.086,0,.086.045l-.045.045c.134.077.093.166.093.3a.2.2,0,0,0,.132.032c.09,0,0,.135.09.135a6.353,6.353,0,0,1,.89.474c.131.045.266-.045.359.045l.041-.045c.045,0,.09,0,.09.045.09-.09.221,0,.311.044a1.546,1.546,0,0,1,.41-.089c.071-.173.253-.205.32-.359.288-.154.416-.506.653-.73v-.077c.07-.032.106-.141.173-.18,0-.115.1-.186.138-.295l.032.038c.032-.192.2-.34.24-.525.032-.032.032-.071.1-.071a2.469,2.469,0,0,1,.176.186c-.038.032.067.07.032.109.134.109.17.333.272.474a1.227,1.227,0,0,0,.1.339c0,.032,0,.07-.032.07a1.606,1.606,0,0,1,.17.7c.1.038.09.1.125.179a.328.328,0,0,0,.362-.166c.042,0,.042.045.042.084a.24.24,0,0,0,.182-.084l.045.045c.089-.084.394,0,.483-.045a.377.377,0,0,1,.228-.077c.086,0,0-.128.086-.128.045,0,.086-.084.179-.038.09-.122.224-.2.311-.327,0,.038.048.038.093.038v-.077c.042-.045.09-.083.138-.128a4.9,4.9,0,0,0,.089-.775c-.089,0,0-.122-.089-.122" transform="translate(-73.974 -15.687)" fill="#1a1412"/>
    <path id="패스_395" data-name="패스 395" d="M91.985,49.137l.067-.007c-.039-.006-.067-.038-.067.007" transform="translate(-61.741 -32.965)" fill="#1a1412"/>
    <path id="패스_396" data-name="패스 396" d="M77.556,25.767a.63.63,0,0,0-.125-.1c.045-.128-.029-.294.071-.423-.211-.377-.148-.909-.468-1.217-.01-.058-.013-.122-.019-.173a13.954,13.954,0,0,0-.82-1.236c-.109.07-.128-.1-.2-.154a.194.194,0,0,1-.17-.038l-.051.064-.064-.045c0,.058-.055.064-.115.07a.282.282,0,0,0-.234-.09c-.061.007-.067-.051-.071-.109-.169.026-.243-.083-.41-.064-.061.007-.064-.051-.071-.109-.23.032-.4.058-.631.084.007.051.077.166-.032.237-.128-.1-.237-.032-.352-.019-.035.186-.2.263-.131.429,0,.051-.051.064-.109.07.083.224-.013.461.125.679.1.339.173,1.2.275,1.114a3.949,3.949,0,0,0,.189.743c0,.058.138.109.086.173a.675.675,0,0,1,.006.083c-.006,0,0,.007-.006.013-.134.026-.2.181-.285.2-.013-.038-.055-.026-.1-.019-.038.051-.131.071-.154.166-.138.032-.176.167-.256.263l-.051-.039c-.166.154-.407.141-.516.321-.266.128-.493.173-.768.276-.045,0-.093.006-.1-.038-.045.083-.234.019-.275.1a4.819,4.819,0,0,0-.8.058c0-.083-.138.007-.144-.077-.228.1-.468-.038-.7-.038-.048-.032-.141-.032-.192-.122a.542.542,0,0,1-.512-.121c-.137,0-.234-.122-.371-.173v-.077a1.093,1.093,0,0,1-.1-.083c0-.122.141-.122.234-.166.1-.128.346-.1.442-.218,0-.045.125-.129.125-.168.045-.09.08-.166.125-.166.144-.077.048-.173.24-.218,0-.045.147-.148.1-.186.192-.122.185-.2.233-.448a.787.787,0,0,0,.231-.429c.048-.038-.01-.218.083-.263.048-.288-.073-.448-.073-.736a.735.735,0,0,1-.093-.083c0-.122-.093-.211-.048-.333-.138-.122-.109-.166-.247-.288l-.083-.09h-.093c-.048-.083-.192-.122-.192-.2a3.984,3.984,0,0,1-.557-.25l-.048.038L69.25,22.1l-.1.077c0-.122-.137,0-.186-.077-.1,0-.189-.045-.285.038-.278-.083-.583.064-.864-.058,0,.077-.186-.045-.186.077-.1.045-.23.045-.278.084h-.138a.748.748,0,0,1-.541.269c-.093,0,0,.128-.093.128h-.1a4.818,4.818,0,0,1-.7.621c0,.045-.093.084-.045.173,0,.039-.048.039-.1.039a.22.22,0,0,1-.093.166c0,.038,0,.083.045.083,0,.038-.074.147-.118.147-.045.166-.045.326-.186.416,0,.333-.1.493-.118.858a4.8,4.8,0,0,1,.048.66c.144.091-.036.085.061.213.048,0,.022.083.022.122.048.09.205.147.154.237,0,.045.08.084.132.084.048.089-.074.179.029.224,0,.045.153.013.1.1l.083.192a.885.885,0,0,1,.214.186.594.594,0,0,0,.189.2,1.113,1.113,0,0,1,.179.083l.055.115.137.128c.147.038.173-.045.288.109.051,0,.1,0,.1.045l.052-.045c.048.09.141.128.195.173a.52.52,0,0,1,.369.141c.054,0,.058.1.058.051.15.045.253.147.349.064.051,0,.1,0,.1.038l.044-.038c.1-.051.122.064.221.026.048,0,.048.038.048.084h.1c.1.089.516-.026.615.064a7.093,7.093,0,0,0,1.457-.058c0-.084.137.007.141-.077l.048.045c.186.051.378-.166.567-.077l.1-.077c.1-.038.23.134.327.019,0,.038.048.045.093.045a.758.758,0,0,0,0-.083c.147-.077.32-.058.432-.173a1.775,1.775,0,0,0,.186.019.7.7,0,0,0,.1-.07c.244-.057.455-.25.733-.314.042-.045.132-.058.17-.141a1.114,1.114,0,0,1,.144-.013c.041-.045.086-.09.125-.135.147.026.269-.173.407-.192-.007-.038-.013-.084.035-.09l.054.032c.086-.052.086-.052.118-.147.013.007.023-.013.036-.013a.646.646,0,0,1,.08.34c.048-.007.106-.013.112.044a.69.69,0,0,0-.1.122c.055-.006.058.051.064.1-.055.006-.048.058-.045.115.055-.006.061.051.067.1a1.06,1.06,0,0,0-.093.129c0,.057.055.044.112.038.058.1-.137.186-.025.224-.026.288.077.589-.074.826-.112-.058.016.308.013.2,0,.109-.067.48-.173.538v.109c.051,0-.058.1-.061.051l.055.051c-.048.173.022.154-.134.269,0,.052,0,.115,0,.166-.112.064,0,.25-.058.3l-.054-.045c-.051,0-.038.045-.038.1.048-.007.067.025.067.077-.1.122.182.115.064.218l-.112.006c.013.007.025.013.038,0-.1-.006.022.243-.137.18-.007.115-.192.275-.259.384.109-.051.093-.038.1.013.048.051-.086.109-.077.109-.006.026-.109.07-.147.109-.2.378-.1.134-.234.339-.058-.006-.115.18-.112.122.051.007-.038.045-.035-.006-.061.051-.061.051-.119.1.045.115.148.173-.025.275-.058-.006-.048-.057-.045-.109-.112.045-.119.154-.177.211-.006.058-.006.058-.012.1a2.243,2.243,0,0,1-.324.339.607.607,0,0,1-.109-.007.225.225,0,0,0-.07.16c0,.058-.055.051-.109.051s-.1.064-.093.006c-.054-.006-.032.09-.147.141l.038.083c-.115.045-.086.064-.189.058-.01.109-.247.109-.256.218.045.115.147.115.2.224l.208.019c.042.115-.163.026-.07.141.058.006.144.019.138.07l-.055.051c.051.006-.054.064-.006.122.054,0,.176.115.221.173l.061-.051c.051.058.112.045.112.1.1,0,.282.077.4-.026.055,0,.2-.1.2-.045.1.057.058-.1.173-.154l.336-.154c.419-.474,1.028-.666,1.447-1.14.08-.019.09-.019.125-.058l0-.07c.006-.051.064-.051.112-.051a.315.315,0,0,1,.132-.211c-.055-.007.17-.116.118-.173a1.744,1.744,0,0,1,.247-.269c.051-.006.051-.058.051-.115.1-.058.1-.058.157-.173a.582.582,0,0,1,.106-.006l-.054-.052c-.058-.109.1-.064.1-.173s.247-.16.189-.276c.1-.166.234-.224.339-.4-.058-.218.125-.346.279-.461,0-.051,0-.109-.051-.109.048-.115.1-.282.154-.4l-.058-.052c.1-.058.051-.166.048-.224.106-.122.157-.224.26-.346a.19.19,0,0,0-.058-.16,1.36,1.36,0,0,0,.106-.122.713.713,0,0,1,.272-.436l-.061-.051c.112-.122,0-.237-.067-.346,0-.058,0-.115.058-.115l.061.051.051-.058L77.47,28.3c.109-.179.013-.422.17-.564a.217.217,0,0,0-.071-.166c.16-.135-.029-.282.067-.41,0-.058-.01-.116-.061-.109l.051-.07-.064-.051.051-.064c-.058.007-.067-.051-.071-.1l.1-.128c.032-.3-.17-.564-.086-.866m-8.745-1.293a1.675,1.675,0,0,1-.752,1.191c-.045,0-.1,0-.1-.045,0-.084-.093-.218-.045-.308,0-.038-.048-.038-.1-.038.1-.1-.064-.179-.016-.314-.048,0-.048-.045-.048-.089.144-.084.026-.314.17-.4l-.045-.039a1.049,1.049,0,0,1,.211-.314v-.09a1.872,1.872,0,0,1,.676-.339c.041,0,.1,0,.1.045.141.18.045.346,0,.525-.1.045,0,.135-.1.18Z" transform="translate(-43.746 -14.824)" fill="#1a1412"/>
    <path id="패스_397" data-name="패스 397" d="M36.144,7.86l.067-.013a1.2,1.2,0,0,1,0-.372c-.013-.051-.109-.019-.083-.051l-.022-.045c-.035-.026.013-.1.038-.128-.026-.128-.138.013-.189-.07l.1-.154c-.045-.09-.246-.141-.33-.192-.051.077-.045.045-.141.1l-.029-.071c-.1.045-.151-.012-.176.026.038.019-.029.019-.051.051s-.055.077-.1.051a.173.173,0,0,0-.144-.038.317.317,0,0,1-.058.071A2.082,2.082,0,0,1,34.111,7a.9.9,0,0,0-.131.032c.042.019-.035.071-.01.032.042.019-.119-.019-.141.019-.211-.007-.679.045-.589-.013-.106-.007-.317.051-.4.013-.026.128-.173-.084-.218,0,.064-.019-.083-.032-.045-.013l.006.058c-.128.038-.144-.084-.272-.038-.041-.019-.061-.038-.038-.077-.045-.019-.074-.045-.1,0l.026.051c-.067.026-.18-.109-.266-.045-.048-.019-.09-.039-.132-.051a1.234,1.234,0,0,1-.474.1L31.3,7.014c.045.007-.074.077-.058.032l-.1-.013a.9.9,0,0,1-.5.052c.1.019-.186-.167-.17-.071-.237.1-.506-.045-.756-.045-.016-.1-.119.058-.2,0,.016-.038.029-.083-.013-.1-.067.038-.109.019-.17.058-.051,0-.1-.013-.08-.058-.051,0-.1-.007-.112.032-.045-.006-.1-.013-.08-.058-.064.038-.125.083-.185.128-.042,0-.032-.045-.023-.089-.2.026-.317-.16-.538-.09.01-.038-.032-.045-.083-.051-.182.122-.439-.007-.6.07-.026-.083-.134-.038-.231-.038-.06.038-.1-.07-.147-.07a3.066,3.066,0,0,0-.65-.1c.09-.1-.666-.1-.957-.147-.185-.1-.406-.013-.6-.058-.007.045-.019.09-.067.09-.141-.045-.224.089-.387.134-.019.1-.125.141-.1.224-.071.1-.08.109-.132.109-.041.186-.074.173-.125.359.055,0,.106.006.09.051-.036.141.048.192.016.339.042,0,.1,0,.087.045a.211.211,0,0,0,.051.2c-.013.045-.025.09-.073.09l.035.051-.067.045a.117.117,0,0,1,.012.141c.045.051.2.058.119.147a9.744,9.744,0,0,0,1.012.621c.055,0,.1.007.154.007.24.25.717.173,1.031.333.125-.089.263-.032.378-.077a.8.8,0,0,0,.08.1c.276-.077.426.064.692.038.061-.038.061-.038.128-.077.048,0,.1.007.08.058l.067-.045.038.051.064-.038c-.013.045.035.051.083.058.128-.083.208.026.355-.1a.162.162,0,0,0,.132.071c.147-.122.2.006.381-.051l.033.051.06-.032-.026-.058c.01-.019.038-.006.058-.013a3.346,3.346,0,0,0,.215.756c.038.013.089.1.115.147-.01.045-.01.045-.016.09.055.1.115.211.167.314-.036-.013-.045.032-.055.077.045.147.041.3.086.448.06.051-.01.084.058.154.006.006-.042.089-.035.1a.231.231,0,0,0,.022.154c.022.167.016.039.122.147-.1.122.074.327-.032.448.058.058.061-.026.077.019l-.038.064c-.019.032.019.051.055.064.035.083-.029.141.019.224.035.013,0,.122.038.128.007.083.112.1.016.167-.035-.013-.019.147-.051.256a.657.657,0,0,1-.012.263c.035.007.057-.032.044,0l-.022.077c.032.007.029.071.016.109,0,.115-.07.173-.112.282-.038.23.083.416-.077.506.055.045-.01.109-.026.141-.06.026-.045.141-.089.167-.058.147-.09.141-.144.282-.1.051-.112.115-.208.173a.364.364,0,0,0-.029.07c-.016.032-.048.026-.08.019-.064.064-.282.161-.314.226l.022.051a1.43,1.43,0,0,0-.314.147c-.138.084-.243.084-.394.16-.128-.038-.237.058-.368.026-.051.019-.1.051-.147.07-.064-.013-.167.032-.215-.013-.064-.026-.048.1-.112.084a.116.116,0,0,0-.064-.013l-.016-.051c-.1.051-.179-.007-.278.038l-.016-.038c-.1.051-.18-.007-.243.058a.744.744,0,0,0-.41-.045c.016-.039-.019-.045-.058-.052l-.038.032c.01-.038-.282-.013-.314-.019l-.067-.019-.016-.032-.051.025c-.055-.051-.4-.083-.487-.173-.064.064-.128.032-.2.019a3.7,3.7,0,0,1-.736-.166l-.02-.045a.3.3,0,0,1-.339-.1A.839.839,0,0,1,24,15.316c-.042-.091-.285-.072-.324-.168A.931.931,0,0,1,23.506,15c-.08.051-.285-.192-.324-.211h-.134l-.054-.147-.179-.135c-.071-.141-.148-.032-.17-.147-.019-.1-.154-.122-.208-.122s-.16.115-.211.026a.931.931,0,0,1-.2.224.3.3,0,0,1-.189.045c-.029.141-.042.154.08.487.057.013.115.328.176.341-.025-.123.163.262.221.314l.081.019c.038.013.022.051,0,.083l.173.122c.012.045.055.058.009.121a1.057,1.057,0,0,1,.327.135c.038.019.016.051-.007.083.036.013.074.032.09,0,.1,0,.033.1.045.141l.061-.013c.013.045.086.077.086.077.115.173.672.391.813.544l.055-.026c.038.09.288.109.288.224l.051-.032c.026.044.391.115.5.173.051-.032-.02-.09.035-.122.061.058.189.173.25.224a1.769,1.769,0,0,1,.269.045c.144.147.439.058.615.134a.12.12,0,0,0,.1.064l.058-.032.022.051c.109-.057.167-.006.24-.07l.023.045.048-.025a.432.432,0,0,1,.048.09c.154.032.291.109.454.019.023.045.058.051.1.064l.112-.051c.112.019.137.064.262.051l.026.045a.566.566,0,0,1,.432-.019c.032-.07.115.026.147-.045l.022.045c.128-.09.317-.045.448-.051l.022.051c.058-.032.038,0,.038,0,.109-.051.372-.058.451-.122a.515.515,0,0,0,.352.045c.045.007.128.032.17.038a.406.406,0,0,1,.461-.019,2.7,2.7,0,0,0,.576-.243,1.083,1.083,0,0,0,.131.032c.064-.019.106-.006.147-.071a1.834,1.834,0,0,0,.493-.25c.019.045.125-.045.147.006a.2.2,0,0,1,.041-.07c.084.025.147-.077.23-.051a.675.675,0,0,0,.039-.07c.128-.045.08-.077.2-.122.109-.07.259-.32.509-.436-.007-.077.154-.121.192-.192.016-.038.061-.026.1-.013l-.025-.051c.061-.026.045-.141.1-.089.019-.038.093-.129.058-.141.122-.1.118-.4.295-.435.016-.038.016-.038.032-.07.071-.1.038-.277.08-.3.019-.032,0-.057.035-.044.041-.148.077-.359.118-.551-.035-.006-.016-.045,0-.077.035.006.051-.032.064-.064-.032-.006-.016-.051,0-.083l.055-.026c-.074-.019.009-.115-.064-.134l.048-.032c-.061-.173.029-.346-.036-.518l.052-.026a.23.23,0,0,1,0-.307.122.122,0,0,1,0-.115c-.1-.064.019-.128-.045-.179.042-.115-.08-.224-.013-.327a2.217,2.217,0,0,0-.108-.211c.012-.038.022-.077.035-.115-.042-.007-.074-.013-.067-.051.061-.064,0-.115.013-.192-.067-.013-.032-.077-.054-.122a1.085,1.085,0,0,0-.2-.525c.048-.077-.054-.372-.048-.461l-.071-.038a.374.374,0,0,0-.138-.192.41.41,0,0,0,.007-.089c-.038,0-.074-.007-.071-.052l.007-.089-.038.045a.248.248,0,0,1-.1-.237c-.134-.2-.186-.333-.384-.608-.074.045,0-.147-.09-.1a1.125,1.125,0,0,0-.33-.442c0-.039,0-.039.007-.09h-.08c-.009,0,0-.019-.009-.026a.86.86,0,0,1,.278-.077c.061.09.2-.077.285-.038s.083-.07.138.013l.016.064a.546.546,0,0,0,.051-.077.272.272,0,0,0,.2-.038c.038.013.077.045.109.007a1.7,1.7,0,0,1,.311-.064c.016.058.112-.032.083.006a.266.266,0,0,1,.218.019c.022-.038.048-.077.093-.051l.048.038a.323.323,0,0,0,.106-.058c.548-.051.849-.32,1.393-.32.093-.038.189-.083.285-.128s.179.077.2-.026c-.038-.025.109-.064.141-.1.134-.019.218-.25.269-.32-.042-.026,0-.064-.01-.122" transform="translate(-14.642 -4.3)" fill="#1a1412"/>
  </g>
</svg>
